<?xml version="1.0" standalone="no"?>
<!DOCTYPE svg PUBLIC "-//W3C//DTD SVG 20010904//EN"
 "http://www.w3.org/TR/2001/REC-SVG-20010904/DTD/svg10.dtd">
<svg version="1.0" xmlns="http://www.w3.org/2000/svg"
 width="500.000000pt" height="500.000000pt" viewBox="0 0 500.000000 500.000000"
 preserveAspectRatio="xMidYMid meet">
<metadata>
Created by potrace 1.14, written by Peter Selinger 2001-2017
</metadata>
<g transform="translate(0.000000,500.000000) scale(0.100000,-0.100000)"
fill="#000000" stroke="none">
<path d="M2235 4434 c-205 -28 -480 -112 -542 -167 -21 -19 -38 -46 -45 -72
-10 -38 -19 -47 -76 -81 -431 -252 -746 -685 -856 -1178 -69 -304 -55 -650 37
-939 l25 -78 -25 -16 c-32 -21 -63 -83 -63 -127 0 -22 20 -74 55 -144 332
-664 1008 -1082 1750 -1082 629 0 1205 288 1577 787 128 172 238 380 238 449
0 41 -28 96 -63 124 l-21 17 26 89 c40 134 57 224 70 380 34 402 -74 816 -300
1155 -149 223 -327 395 -555 539 -82 51 -91 61 -103 99 -7 24 -23 54 -35 67
-50 53 -347 146 -566 178 -135 19 -386 20 -528 0z m168 -153 c26 -10 67 -49
67 -63 0 -12 -68 -10 -75 2 -8 13 -51 13 -75 0 -36 -19 -34 -97 4 -122 17 -12
71 -9 84 4 22 22 13 34 -23 30 -32 -4 -35 -2 -35 22 0 25 2 26 65 26 l65 0 0
-31 c0 -127 -187 -161 -236 -44 -19 47 -18 84 6 123 31 51 98 74 153 53z m282
-5 c63 -27 94 -114 62 -176 -17 -34 -74 -70 -109 -70 -45 0 -97 29 -115 63
-36 70 -12 144 58 179 41 22 59 22 104 4z m-507 -43 c3 -19 -3 -23 -37 -29
-35 -6 -41 -10 -41 -31 0 -24 2 -25 45 -19 43 7 45 6 45 -17 0 -20 -6 -26 -36
-31 -29 -6 -35 -11 -32 -29 3 -19 8 -22 49 -20 36 2 49 -1 53 -14 9 -23 0 -29
-77 -45 -66 -15 -67 -15 -73 6 -3 12 -15 66 -28 121 l-23 100 61 17 c75 20 90
19 94 -9z m742 6 c40 -11 59 -24 83 -59 38 -54 8 -145 -57 -177 -30 -14 -42
-14 -94 -3 -33 6 -65 15 -71 20 -9 5 -6 33 14 111 14 57 28 110 30 118 5 13
14 12 95 -10z m-985 -142 c15 -45 31 -85 34 -90 4 -4 22 -2 40 4 27 9 35 9 42
-2 14 -23 6 -30 -59 -55 -46 -17 -64 -20 -67 -11 -27 74 -75 217 -75 222 0 8
43 24 52 19 3 -2 19 -41 33 -87z m1183 -10 c-16 -45 -36 -98 -43 -117 -9 -26
-17 -34 -31 -32 -43 8 -42 16 18 174 l29 77 29 -11 29 -10 -31 -81z m-1384
-194 c-10 -8 -59 -40 -109 -73 -326 -211 -569 -554 -665 -937 -8 -33 -16 -43
-31 -43 -25 0 -23 15 23 160 115 365 374 692 708 894 65 39 76 43 84 29 7 -12
4 -21 -10 -30z m1606 1 c195 -114 391 -303 523 -504 93 -142 197 -386 222
-522 6 -34 5 -38 -13 -38 -16 0 -23 12 -36 68 -101 406 -369 754 -762 988 -15
9 -15 44 0 44 3 0 32 -16 66 -36z m-683 -105 c391 -43 743 -256 957 -576 301
-453 299 -1007 -6 -1465 -77 -115 -245 -287 -352 -358 -223 -149 -463 -220
-741 -220 -298 0 -557 84 -782 253 -526 397 -691 1089 -396 1660 247 478 785
766 1320 706z m1374 -1049 c29 -16 25 -68 -8 -102 l-27 -28 32 0 c22 0 32 -5
32 -15 0 -12 -13 -15 -55 -15 -66 0 -70 12 -20 60 36 35 47 80 20 80 -9 0 -18
-7 -21 -15 -8 -19 -34 -20 -34 -1 0 15 36 46 53 46 5 0 17 -5 28 -10z m136 -5
c24 -17 39 -71 28 -104 -15 -49 -62 -66 -97 -34 -26 23 -25 106 2 133 24 24
38 25 67 5z m-3259 -22 c2 -9 -7 -13 -27 -13 -24 0 -31 -4 -31 -20 0 -15 7
-20 25 -20 14 0 25 -4 25 -10 0 -5 -11 -10 -25 -10 -36 0 -35 -38 2 -42 48 -6
39 -28 -11 -28 l-46 0 0 81 0 80 42 -3 c23 -2 43 -9 46 -15z m116 1 c9 -8 16
-20 16 -25 0 -13 -24 -11 -37 2 -14 14 -47 4 -38 -11 4 -6 22 -17 41 -25 36
-15 46 -49 22 -73 -25 -25 -98 -7 -98 23 0 19 19 19 39 1 10 -9 22 -12 30 -7
19 12 6 29 -35 46 -22 9 -34 21 -34 34 0 27 26 51 55 51 13 0 31 -7 39 -16z
m3010 -270 c23 -23 20 -58 -9 -93 l-26 -30 26 -3 c46 -6 31 -23 -22 -26 -64
-4 -66 6 -18 59 19 22 35 46 35 54 0 23 -31 31 -42 12 -12 -23 -28 -21 -28 3
0 36 56 52 84 24z m146 -44 c0 -27 5 -50 10 -50 6 0 10 -7 10 -15 0 -8 -4 -15
-10 -15 -5 0 -10 -7 -10 -15 0 -8 -7 -15 -15 -15 -8 0 -15 7 -15 15 0 11 -11
15 -40 15 -22 0 -40 5 -40 10 0 23 74 120 91 120 16 0 19 -8 19 -50z m-3280
25 c0 -8 -9 -15 -20 -15 -18 0 -20 -7 -20 -65 0 -51 -3 -65 -15 -65 -12 0 -15
14 -15 65 0 58 -2 65 -20 65 -11 0 -20 7 -20 15 0 12 13 15 55 15 42 0 55 -3
55 -15z m143 -16 c45 -55 3 -129 -74 -129 l-39 0 0 81 0 82 48 -7 c30 -4 53
-13 65 -27z m-75 -323 c19 -72 21 -90 10 -97 -25 -16 -23 -21 -68 159 -8 30
-7 33 13 30 17 -2 25 -18 45 -92z m3117 42 c-26 -110 -36 -138 -50 -138 -24 0
-24 14 -4 95 24 94 25 95 48 95 17 0 17 -4 6 -52z m-2945 -293 c13 -24 11 -32
-24 -102 -20 -41 -36 -77 -34 -78 2 -2 30 13 62 32 56 35 59 35 72 18 8 -10
14 -24 14 -29 0 -10 -178 -117 -205 -124 -6 -1 -17 8 -24 21 -11 21 -8 33 29
106 l41 83 -66 -37 c-63 -36 -67 -37 -80 -19 -8 11 -13 24 -11 29 2 9 193 124
207 125 3 0 12 -11 19 -25z m2769 16 c12 -8 10 -16 -8 -47 -22 -36 -22 -39 -5
-51 25 -18 28 -17 47 22 15 31 20 34 37 25 24 -13 24 -14 3 -52 -17 -28 -17
-30 1 -44 28 -20 31 -19 51 26 20 44 22 45 47 27 15 -12 13 -19 -20 -79 l-37
-66 -100 55 c-55 30 -104 59 -108 63 -10 9 53 130 68 130 6 0 16 -4 24 -9z
m-49 -189 c0 -17 -32 -52 -47 -52 -26 0 -53 -31 -53 -61 0 -44 41 -75 90 -70
24 3 52 43 46 65 -4 18 23 66 37 66 11 0 26 -64 21 -89 -26 -109 -150 -139
-224 -54 -29 33 -32 41 -27 86 4 42 10 56 41 84 28 26 44 33 76 33 22 0 40 -3
40 -8z m-2520 -133 c0 -3 -7 -13 -16 -20 -17 -14 -17 -14 -60 45 -13 19 -14
19 -33 1 -20 -18 -20 -18 5 -48 25 -30 25 -31 7 -45 -16 -12 -21 -10 -44 17
-24 29 -26 30 -47 15 l-22 -15 25 -33 c22 -29 32 -56 21 -56 -2 0 -11 -2 -19
-5 -16 -7 -101 100 -92 115 3 5 47 41 96 80 l91 70 44 -57 c24 -31 44 -60 44
-64z m55 -100 l-7 -47 41 11 c34 9 43 8 61 -8 27 -25 25 -31 -12 -39 -106 -21
-104 -19 -117 -97 l-13 -71 -25 24 c-21 20 -24 29 -18 65 7 47 0 52 -51 33
-23 -9 -31 -7 -50 11 -13 12 -22 24 -20 27 3 2 35 12 72 21 75 19 68 9 89 125
l6 38 25 -23 c22 -21 24 -29 19 -70z m2301 26 c19 -19 25 -34 22 -57 -3 -31
-1 -33 50 -48 l54 -15 -25 -23 c-25 -24 -26 -24 -78 -8 -29 8 -55 13 -58 10
-3 -2 10 -20 29 -39 33 -34 33 -35 15 -55 -10 -11 -21 -20 -25 -20 -3 0 -44
41 -89 91 l-84 90 29 31 c66 70 119 84 160 43z m-1975 -235 c5 0 9 -27 9 -61
l0 -61 41 33 c34 27 45 31 67 23 14 -5 27 -13 29 -19 1 -5 -30 -32 -71 -58
-46 -30 -80 -60 -92 -82 -20 -38 -25 -40 -55 -25 -19 11 -19 11 1 50 15 29 20
59 20 119 0 72 -2 79 -18 74 -10 -2 -24 3 -31 11 -8 9 -17 16 -20 16 -4 0 -33
-36 -65 -80 -57 -80 -57 -80 -81 -64 -14 9 -25 18 -25 20 0 3 25 38 55 78 30
40 55 77 55 83 0 6 -10 17 -21 25 -19 12 -20 17 -10 36 11 21 14 19 107 -48
53 -39 100 -70 105 -70z m1786 121 c10 -17 8 -22 -22 -43 -39 -26 -40 -27 -22
-52 12 -16 14 -16 39 3 31 25 41 26 57 7 10 -12 6 -19 -18 -37 -35 -26 -36
-28 -17 -54 13 -17 15 -17 50 10 20 15 38 26 39 24 2 -2 8 -11 15 -20 11 -14
4 -23 -49 -63 l-62 -45 -75 100 c-41 55 -72 102 -70 105 14 13 112 84 117 84
4 0 12 -9 18 -19z m-134 -133 c13 -24 40 -73 60 -109 l35 -67 -25 -13 c-22
-12 -27 -12 -35 1 -5 8 -20 33 -34 55 l-25 40 7 -69 c5 -53 3 -70 -7 -77 -24
-15 -35 -10 -88 37 -28 25 -51 42 -51 37 0 -4 14 -30 30 -58 16 -27 30 -53 30
-56 0 -6 -51 -32 -55 -27 -1 2 -28 51 -59 110 l-57 107 31 16 c35 18 28 21
116 -52 28 -24 53 -43 55 -43 3 0 1 39 -4 86 -10 85 -9 87 14 105 13 10 27 19
31 19 4 0 18 -19 31 -42z m-256 -217 c27 -91 32 -116 21 -122 -31 -20 -45 -9
-64 54 l-19 62 -10 -74 c-8 -61 -14 -75 -31 -82 -18 -6 -28 1 -65 52 -23 32
-44 58 -45 56 -2 -2 5 -30 16 -62 19 -63 18 -69 -17 -79 -20 -6 -24 1 -53 96
-17 57 -33 110 -36 119 -3 12 5 20 28 28 32 12 34 11 68 -31 19 -23 47 -56 61
-72 l26 -30 7 92 c7 87 9 91 34 101 15 5 31 8 36 7 5 -1 24 -53 43 -115z
m-1096 92 c61 -17 76 -30 65 -58 -4 -13 -10 -13 -47 0 -34 12 -44 13 -51 3
-15 -24 -8 -36 27 -48 36 -12 39 -17 29 -43 -5 -14 -11 -14 -44 -2 -33 12 -39
12 -44 -2 -12 -30 -5 -40 34 -52 39 -12 47 -24 32 -49 -8 -11 -37 -5 -139 33
-10 3 17 104 62 223 6 15 3 15 76 -5z m756 -107 c28 -30 33 -43 33 -85 0 -163
-232 -174 -248 -11 -3 36 0 57 12 75 49 75 145 85 203 21z m-275 -5 c15 -17
28 -36 28 -41 0 -16 -67 -12 -74 5 -7 20 -65 19 -88 -2 -24 -22 -24 -77 2
-103 24 -24 49 -25 76 -5 10 8 34 15 51 15 31 0 32 -1 21 -26 -16 -34 -57 -54
-114 -54 -39 0 -51 5 -80 34 -29 29 -34 41 -34 80 0 92 48 139 134 132 41 -3
55 -9 78 -35z m-317 -34 c35 -8 60 -18 59 -25 -3 -41 -1 -40 -79 -24 -68 13
-75 17 -75 38 0 28 8 29 95 11z"/>
<path d="M2587 4212 c-23 -25 -22 -85 1 -105 45 -41 112 -8 112 55 0 57 -76
91 -113 50z"/>
<path d="M2861 4148 c-6 -29 -14 -63 -17 -75 -6 -21 -3 -23 34 -23 59 0 94 46
77 100 -5 17 -57 50 -78 50 -2 0 -9 -24 -16 -52z"/>
<path d="M2286 3694 c-158 -29 -327 -97 -469 -191 -102 -67 -271 -239 -342
-348 -238 -364 -265 -823 -72 -1210 58 -116 129 -217 221 -313 69 -71 199
-182 216 -182 3 0 18 42 33 93 32 105 109 302 191 492 98 225 92 268 -60 425
-55 58 -109 120 -118 138 l-17 32 -84 0 c-53 0 -86 -4 -91 -12 -4 -6 -9 -44
-12 -85 -3 -40 -8 -73 -13 -73 -5 0 -20 17 -33 37 -105 161 -55 382 103 462
32 17 39 26 45 60 8 55 44 91 146 149 159 91 304 138 456 148 139 10 234 -8
409 -76 83 -32 158 -61 168 -64 25 -8 21 -25 -8 -32 -14 -3 -25 -8 -25 -11 0
-3 39 -47 88 -97 136 -144 246 -276 228 -276 -25 0 -20 -9 43 -93 51 -69 151
-242 151 -262 0 -4 -11 0 -25 9 -14 9 -25 14 -25 10 0 -3 33 -74 74 -159 69
-143 77 -156 132 -199 33 -25 62 -46 65 -46 10 0 55 145 74 235 26 126 22 361
-9 495 -56 244 -169 444 -344 612 -182 174 -381 279 -621 328 -119 24 -352 26
-475 4z"/>
<path d="M2325 3259 c-71 -10 -214 -53 -270 -81 -105 -53 -198 -115 -212 -141
-8 -16 -12 -31 -9 -34 8 -8 46 8 46 20 0 7 8 21 16 32 15 19 15 19 9 -10 l-7
-30 24 29 24 29 -4 -36 c-3 -26 2 -45 17 -66 30 -42 26 -45 -18 -16 l-38 26
-59 -24 c-58 -23 -59 -25 -58 -61 1 -32 10 -45 64 -97 l62 -59 107 0 c94 0
225 -16 304 -38 15 -4 -42 -6 -125 -4 -141 3 -152 2 -137 -12 8 -9 37 -25 65
-36 63 -25 34 -26 -39 -1 -63 20 -71 19 -29 -3 l27 -15 -30 -1 -29 0 23 -17
c13 -9 40 -24 60 -35 34 -17 35 -18 6 -12 -16 4 -48 16 -70 26 -37 19 -34 14
42 -64 81 -82 114 -135 112 -180 -1 -21 -2 -20 -9 4 -15 51 -48 93 -119 151
-39 32 -85 76 -103 98 -17 21 -33 37 -36 34 -10 -10 33 -63 117 -145 126 -123
136 -146 138 -340 1 -94 -2 -143 -7 -125 -4 17 -8 48 -10 70 l-1 40 -31 -65
c-40 -87 -118 -269 -118 -276 0 -4 25 29 56 72 31 44 62 86 71 94 12 13 13 12
4 -13 -6 -16 -11 -61 -11 -101 0 -61 5 -83 30 -133 37 -74 60 -97 60 -62 0 42
12 70 26 65 11 -4 13 1 7 22 -5 15 -8 69 -8 120 0 50 -2 86 -4 80 -2 -7 -10
-33 -17 -58 l-12 -45 -1 40 c-1 63 16 108 55 145 l36 35 -8 -50 c-19 -117 11
-211 91 -290 53 -51 65 -55 65 -21 0 14 7 32 16 40 14 15 14 20 -1 64 -20 60
-30 191 -20 268 l9 59 7 -70 c5 -38 15 -90 23 -113 17 -49 67 -117 98 -133 17
-9 18 -8 9 10 -11 20 -15 84 -6 93 3 3 22 -1 43 -8 70 -25 95 -14 45 19 -25
16 -26 18 -5 14 29 -7 28 4 -4 34 -30 28 -67 97 -82 154 -11 39 -11 40 6 15
61 -90 158 -166 255 -199 56 -19 57 -19 47 -1 -6 10 -15 22 -20 25 -6 3 -10
13 -10 21 0 10 12 14 44 14 25 0 47 4 50 9 3 5 -18 23 -46 39 -57 32 -168 127
-168 143 0 6 19 -3 43 -19 110 -76 234 -119 360 -127 l92 -6 -63 24 c-65 25
-115 56 -167 102 -20 18 -24 25 -11 21 16 -5 14 -1 -8 29 -29 38 -81 144 -74
150 2 3 21 -18 42 -45 63 -82 186 -174 284 -211 24 -9 23 -6 -15 33 -45 46
-53 61 -28 52 21 -8 19 2 -9 39 -13 18 -38 61 -57 96 -18 35 -55 86 -81 113
-26 26 -45 48 -42 48 13 0 93 -46 129 -74 22 -17 83 -70 135 -118 85 -79 170
-146 170 -134 0 2 -27 62 -60 134 -74 161 -121 243 -174 301 -43 46 -36 47 24
1 56 -43 61 -43 38 -3 -11 21 -71 86 -131 146 -95 92 -105 105 -73 92 21 -9
44 -15 51 -13 21 5 -184 227 -252 274 -34 23 -85 52 -115 63 l-53 21 60 -5 60
-5 -84 36 c-137 58 -264 75 -416 53z m80 -194 c-29 -13 -27 -13 50 -16 44 -1
67 -4 50 -7 -28 -5 -27 -6 25 -22 53 -17 54 -18 20 -20 -33 -1 -32 -3 25 -22
80 -26 91 -39 29 -32 -62 8 -109 -14 -174 -80 -58 -60 -101 -73 -175 -51 -30
8 -57 20 -60 25 -9 14 -58 12 -75 -2 -8 -8 -7 -2 4 15 l17 28 -28 -7 c-27 -6
-27 -6 -8 9 29 24 6 20 -35 -4 -29 -18 -32 -19 -20 -3 14 16 13 17 -5 11 -13
-5 -7 5 17 28 40 37 41 43 5 23 -21 -11 -21 -10 -7 7 13 17 13 18 0 10 -8 -4
-23 -15 -34 -24 -18 -15 -18 -15 -11 8 5 16 3 26 -6 32 -12 8 -12 10 0 18 15
9 114 26 141 23 8 -1 67 14 130 32 121 37 179 46 125 21z m-497 -177 c17 -17
15 -58 -2 -58 -23 0 -70 45 -62 58 9 16 49 15 64 0z m1002 -71 c65 -32 192
-142 232 -201 13 -19 -3 -8 -43 30 -89 84 -140 122 -233 172 -93 49 -57 48 44
-1z m-699 -48 c54 -12 156 -52 109 -44 -127 24 -214 35 -276 35 -40 0 -76 5
-79 10 -9 14 180 13 246 -1z m662 -61 c52 -28 202 -154 157 -132 -22 10 -170
113 -203 141 -39 31 -26 29 46 -9z m127 -267 c20 -17 8 -14 -51 13 -74 33
-189 100 -189 111 0 9 214 -101 240 -124z m-202 -23 c83 -41 91 -48 57 -43
-73 11 -155 60 -210 125 -18 21 -16 20 18 -5 21 -15 82 -50 135 -77z m-342
-91 c38 -75 76 -167 69 -167 -14 0 -136 242 -135 268 1 14 32 -33 66 -101z
m239 -4 l70 -34 -44 5 c-54 6 -126 50 -154 96 l-21 35 39 -34 c22 -19 71 -50
110 -68z"/>
<path d="M2299 2995 c-61 -16 -69 -22 -69 -49 0 -80 112 -95 141 -19 8 22 -6
84 -19 82 -4 0 -28 -7 -53 -14z m35 -63 c-17 -26 -51 -27 -65 -1 -10 20 -9 25
11 41 23 19 24 19 44 -2 16 -16 18 -24 10 -38z"/>
<path d="M2074 2904 c-18 -14 -18 -15 4 -4 12 6 22 13 22 15 0 8 -5 6 -26 -11z"/>
<path d="M2380 2879 c-46 -32 -73 -34 -160 -14 -20 5 -18 2 10 -14 62 -36 126
-24 179 33 31 33 26 33 -29 -5z"/>
<path d="M1713 2881 c-17 -16 -41 -48 -52 -72 -14 -29 -16 -36 -4 -19 9 14 37
44 60 67 49 46 44 68 -4 24z"/>
<path d="M1845 2695 c-29 -15 -29 -15 24 -9 30 3 62 9 70 14 27 16 -61 11 -94
-5z"/>
<path d="M3400 2107 c41 -25 109 -70 150 -100 67 -49 102 -64 84 -36 -8 13
-171 122 -219 146 -79 40 -88 34 -15 -10z"/>
<path d="M3154 1926 c-31 -16 -63 -43 -82 -70 -38 -52 -42 -70 -8 -29 13 16
46 40 72 53 43 22 62 25 149 25 88 0 111 -4 194 -34 76 -27 95 -31 102 -20 15
24 11 27 -73 60 -72 28 -98 33 -193 37 -102 3 -114 2 -161 -22z"/>
<path d="M2093 1818 c-46 -57 -55 -145 -25 -225 11 -26 22 -57 26 -68 6 -16 9
-17 16 -5 14 22 12 56 -6 132 -13 54 -15 79 -6 120 11 58 10 65 -5 46z"/>
<path d="M3111 1650 c-1 -52 5 -77 28 -126 32 -67 41 -77 65 -68 14 5 14 9 -3
33 -33 47 -55 95 -72 161 l-17 65 -1 -65z"/>
<path d="M2537 1680 c-12 -44 -8 -130 9 -163 23 -45 50 -77 58 -70 12 13 5 45
-21 96 -14 29 -29 77 -32 107 -5 44 -8 50 -14 30z"/>
<path d="M1973 1652 c-22 -39 -73 -196 -73 -225 0 -13 27 -37 43 -37 2 0 7 33
11 73 4 39 15 106 26 147 10 41 18 75 16 77 -1 2 -12 -14 -23 -35z"/>
<path d="M2777 1623 c-20 -19 2 -94 42 -143 30 -37 36 -18 11 37 -13 26 -28
63 -35 81 -6 18 -15 29 -18 25z"/>
<path d="M2930 1418 c0 -69 6 -88 30 -88 31 0 31 15 0 81 l-29 64 -1 -57z"/>
<path d="M2313 1417 c-29 -64 -7 -157 38 -157 19 0 19 1 3 38 -9 20 -19 62
-23 92 -6 53 -6 54 -18 27z"/>
<path d="M2102 1381 c-27 -47 -27 -57 -3 -64 16 -4 19 3 24 47 3 28 4 52 3 53
-1 2 -12 -15 -24 -36z"/>
<path d="M2689 1380 c-2 -64 6 -120 19 -120 28 1 29 18 6 85 -21 63 -24 67
-25 35z"/>
<path d="M4121 2706 c-7 -8 -11 -32 -9 -53 2 -30 7 -38 23 -38 27 0 42 46 27
80 -13 28 -24 31 -41 11z"/>
<path d="M4127 2380 c-18 -29 -18 -30 2 -30 17 0 21 6 21 30 0 17 -1 30 -3 30
-1 0 -11 -13 -20 -30z"/>
<path d="M960 2360 c0 -46 2 -50 23 -50 13 0 28 5 35 12 29 29 2 88 -39 88
-16 0 -19 -7 -19 -50z"/>
<path d="M3605 1400 c-18 -20 -18 -21 1 -41 20 -19 20 -19 43 5 20 21 22 28
11 41 -17 20 -33 19 -55 -5z"/>
<path d="M2637 942 c-40 -44 -7 -122 51 -122 55 0 81 68 46 118 -19 28 -74 30
-97 4z"/>
</g>
</svg>
